%
M48
M72
T01C0.0130
T02C0.0250
T03C0.0400
T04C0.0433
T05C0.1300
T06C0.1496
%
T01
X5574Y10692
X6046Y15771
X7897Y17267
X8172Y18448
X9944Y19235
X11361Y18960
X11086Y17424
X11361Y15652
X13487Y17188
X14078Y17700
X14156Y18369
X14353Y18645
X13408Y18645
X12778Y19668
X13723Y19826
X14038Y19668
X13999Y20456
X14550Y20652
X15731Y20101
X16164Y19629
X15337Y18605
X15652Y16912
X19353Y20219
X19786Y19904
X21322Y19078
X22227Y17582
X22857Y17306
X22739Y16952
X22306Y16558
X23015Y16007
X23290Y15534
X23015Y14353
X20062Y17188
X23566Y17660
X24117Y18330
X17503Y22582
X16125Y21755
X15180Y21991
X15613Y23211
X14668Y23211
X15928Y24235
X12582Y21440
X11558Y21755
X11558Y21125
X11558Y20495
X10810Y20692
X10810Y22188
X12424Y23802
X6400Y18172
X5928Y19038
X10613Y10062
X18330Y6558
X20259Y9550
X22306Y9156
X23133Y8605
X23172Y10377
X22660Y10652
T02
X8841Y23196
X7841Y24196
X8841Y25196
T03
X11960Y26058
X11960Y27058
X12960Y27058
X12960Y26058
X13960Y26058
X14960Y26058
X14960Y27058
X13960Y27058
X15960Y27058
X15960Y26058
X18865Y24621
X19865Y24621
X19865Y23621
X18865Y23621
X18865Y22621
X19865Y22621
X24983Y7660
X7560Y3308
X3723Y6873
X1361Y11322
X1361Y12322
X1361Y13322
X1361Y14322
X1361Y15322
X1361Y16322
X2936Y18586
T04
X3015Y14353
X24904Y14353
T05
X5692Y5298
X22621Y5298
X22621Y23015
X5692Y23015
T06
X7700Y14353
X20219Y14353
M30
